# xmcd
#
# Track frame offsets:
#	150
#	18082
#	31939
#	51783
#	69259
#	87943
#	102711
#	119324
#	138987
#	153412
#	170094
#	188800
#
# Disc length: 2663 seconds
# Revision: 1
# Processed by: cddbd v1.5.2PL0 Copyright (c) Steve Scherf et al.
# Submitted via: dBpowerAMP V12.0
#
DISCID=9a0a650c
DTITLE=Lex K - Well Travelled Road
DYEAR=2013
DGENRE=Country
TTITLE0=Namitjira's Land
TTITLE1=They Don't Play My Kinda Music
TTITLE2=Walk Away
TTITLE3=Down Memory Lane
TTITLE4=Country Way Of Life
TTITLE5=I Like A Little Boogie
TTITLE6=Bushman TV
TTITLE7=I Always Get The Blues
TTITLE8=Well Travelled Road
TTITLE9=Sound Of Soaking Rain
TTITLE10=Tools Of My Trade
TTITLE11=Thanks To A Few Good Mates
EXTD=
EXTT0=
EXTT1=
EXTT2=
EXTT3=
EXTT4=
EXTT5=
EXTT6=
EXTT7=
EXTT8=
EXTT9=
EXTT10=
EXTT11=
PLAYORDER=
